<svg enable-background="new 0 0 512 512" viewBox="0 0 512 512" xmlns="http://www.w3.org/2000/svg"><circle cx="256" cy="256" fill="#646768" r="241"/><path d="m256 39c129.076 0 234.448 101.475 240.702 229 .195-3.976.298-7.976.298-12 0-133.101-107.899-241-241-241s-241 107.899-241 241c0 4.024.103 8.024.298 12 6.254-127.525 111.626-229 240.702-229z" fill="#464a4c"/><path d="m256 374.264c-62.695 0-114.063-48.483-118.663-110.002-.222 2.971-.337 5.971-.337 8.998 0 65.722 53.278 119 119 119s119-53.278 119-119c0-3.027-.115-6.028-.337-8.998-4.6 61.518-55.968 110.002-118.663 110.002z" fill="#464a4c"/><circle cx="256" cy="256" fill="#f4f3ef" r="119"/><path d="m182.967 239.946c-2.002 0-4.039-.346-6.028-1.076-9.073-3.33-13.729-13.385-10.398-22.458 9.094-24.779 31.792-45.158 60.714-54.512 9.195-2.975 19.062 2.069 22.036 11.266 2.974 9.196-2.07 19.062-11.266 22.036-22.101 7.147-34.445 21.873-38.628 33.269-2.6 7.084-9.299 11.475-16.43 11.475z" fill="#fff"/></svg>