<svg fill="none" height="15" viewBox="0 0 15 15" width="15" xmlns="http://www.w3.org/2000/svg"><path d="m9.35762 2.14496c-1.22214-.28394-2.49318-.28394-3.71532.00001-.70588-.43328-1.24526-.63211-1.63728-.71588-.21313-.04555-.38206-.05693-.50912-.05353-.06341.00169-.11589.00705-.15769.01349-.02088.00321-.03902.00668-.05446.01006-.00772.00169-.01476.00336-.02111.00497l-.00902.00235-.00412.00113-.00197.00055-.0019.00054c-.00001 0 0-.00001 0 0-.00043.00019.00168.00587.13736.4803l-.13736-.4803c-.14203.04061-.25883.14196-.31906.27684-.16816.37653-.26.78267-.27022 1.19492-.0076.30636.02999.61158.11108.90592-.2131.25812-.38673.54716-.51467.85774-.16792.40766-.25382.84443-.25278 1.28532.00013 1.55255.45817 2.59643 1.23875 3.26718.5469.46996 1.21175.72001 1.87746.86323-.10993.3054-.13846.6285-.11621.9578v.5982c-.40735.0857-.68863.0586-.88916-.0076-.25198-.0832-.44516-.2504-.62943-.4907-.09333-.1216-.17931-.2552-.2696-.4014l-.05731-.0933c-.07071-.1155-.14702-.24-.22403-.3536-.19081-.2814-.47232-.63304-.9285-.75281l-.48361-.12697-.25394.96718.48361.127c.07945.0209.18403.095.35478.3468.06274.0925.12259.1902.19093.3017.02146.035.04381.0715.0673.1096.09386.1519.20151.321.32694.4845.25323.3301.59801.6628 1.10946.8316.35141.116.74861.1438 1.20256.0741v1.8681c0 .2761.22386.5.5.5h4c.27615 0 .5-.2239.5-.5v-3.5625c0-.3158-.01375-.6045-.10263-.8739.66235-.13979 1.32195-.39007 1.86525-.86041.7803-.67546 1.2374-1.72874 1.2374-3.29069v-.00161c-.0025-.77877-.2758-1.52892-.7675-2.12454.0811-.29435.1187-.59957.1111-.90594-.0102-.41225-.102-.81839-.2702-1.19492-.0603-.13492-.1771-.23628-.3192-.27688l-.1373.48076c.1373-.48076.1359-.48116.1354-.4813l-.0019-.00055-.0042-.00112-.009-.00235c-.0063-.0016-.0134-.00327-.0211-.00496-.0154-.00338-.0335-.00684-.0544-.01005-.0418-.00643-.0943-.01179-.1577-.01348-.1271-.0034-.2961.00798-.5093.05352-.3921.08378-.9314.2826-1.63708.71588z" fill="#000"/></svg>